<svg xmlns="http://www.w3.org/2000/svg" width="211" height="239" viewBox="0 0 211 239">
<g>
<path d="M 0.13 119.25 L 0.00 239.00 L 0.00 0.00 L 211.00 0.00 L 211.00 239.00 L 210.86 120.75 C210.79,56.38 210.60,4.48 210.44,4.48 C210.44,4.48 210.43,4.49 210.43,4.50 C210.09,6.85 208.66,22.66 201.95,98.50 C200.78,111.70 197.95,143.39 195.66,168.92 L 191.50 215.34 L 186.00 216.83 C158.83,224.19 109.61,238.06 109.19,238.48 C108.90,238.76 131.69,239.00 159.83,239.00 L 51.67 239.00 C80.08,239.00 103.13,238.79 102.87,238.54 C102.44,238.10 95.55,236.14 43.00,221.53 L 20.50 215.27 L 19.79 210.89 C19.40,208.47 17.92,193.00 16.51,176.50 C15.09,160.00 13.06,136.82 12.00,125.00 C8.53,86.41 6.10,58.93 4.01,34.50 C2.88,21.30 1.57,8.02 1.10,5.00 C0.61,1.81 0.20,49.70 0.13,119.25 ZM 85.50 187.92 C94.85,190.63 103.70,192.88 105.16,192.92 C106.62,192.96 114.49,191.17 122.66,188.94 C130.82,186.70 140.65,184.02 144.50,182.98 C148.35,181.94 153.30,180.46 155.50,179.70 L 159.50 178.30 L 160.68 166.40 C161.33,159.86 162.80,143.70 163.94,130.50 C165.09,117.30 166.27,104.59 166.57,102.26 L 167.12 98.02 L 71.58 97.50 L 70.92 94.27 C70.56,92.49 69.94,86.53 69.55,81.02 L 68.84 71.00 L 168.96 71.00 L 169.42 68.75 C169.67,67.51 170.14,62.79 170.46,58.26 C170.78,53.73 171.32,48.67 171.65,47.01 L 172.25 44.00 L 106.68 44.00 C70.62,44.00 40.88,44.39 40.59,44.86 C40.29,45.33 40.92,55.35 41.98,67.11 C43.04,78.87 44.39,93.90 44.99,100.50 C45.58,107.10 46.32,115.09 46.63,118.25 L 47.20 124.00 L 92.04 124.00 C116.70,124.00 137.11,124.37 137.38,124.81 C137.66,125.26 137.35,131.71 136.69,139.15 C135.56,152.01 135.35,152.85 132.47,156.12 C129.82,159.13 127.91,159.99 117.40,162.85 L 105.36 166.13 L 95.93 163.52 C90.74,162.09 84.14,160.24 81.25,159.43 L 76.00 157.94 L 75.94 153.22 C75.87,147.92 74.60,139.27 73.77,138.43 C72.90,137.56 51.20,137.26 49.85,138.09 C48.89,138.69 48.89,142.13 49.87,154.17 C50.54,162.60 51.36,171.60 51.67,174.16 L 52.23 178.81 L 60.37 180.90 C64.84,182.05 76.15,185.21 85.50,187.92 Z" fill="rgb(231,83,39)"/>
<path d="M 135.44 150.28 C134.87,154.61 134.31,157.81 133.96,158.03 C133.37,158.39 126.68,160.36 119.10,162.40 L 113.86 163.81 L 117.40 162.85 C127.91,159.99 129.82,159.13 132.47,156.12 C134.10,154.27 134.87,153.20 135.44,150.28 ZM 137.40 124.84 C137.40,124.84 137.41,124.85 137.41,124.85 C137.83,125.54 137.35,132.76 136.59,140.29 C136.62,139.92 136.66,139.54 136.69,139.15 C137.34,131.84 137.65,125.48 137.40,124.84 Z" fill="rgb(214,120,89)"/>
<path d="M 0.96 5.49 C1.01,4.86 1.06,4.69 1.10,5.00 C1.27,6.11 1.56,8.59 1.90,11.95 C1.49,8.32 1.16,5.95 0.97,5.50 C0.97,5.50 0.96,5.49 0.96,5.49 ZM 5.87 56.04 C7.02,69.16 8.29,83.55 9.78,100.17 C9.12,92.90 8.49,85.84 8.01,80.50 C7.45,74.28 6.67,65.27 5.87,56.04 ZM 12.30 128.34 C13.41,140.81 15.22,161.44 16.51,176.50 C17.83,191.97 19.21,206.54 19.70,210.28 C19.21,206.54 17.83,191.97 16.50,176.50 C15.24,161.77 13.46,141.35 12.30,128.34 Z" fill="rgb(247,201,180)"/>
<path d="M 0.07 121.25 C0.10,56.49 0.51,4.40 0.97,5.50 C1.43,6.60 2.77,19.20 3.96,33.50 C5.15,47.80 6.98,68.95 8.01,80.50 C9.05,92.05 10.80,111.62 11.91,124.00 C13.02,136.38 15.09,160.00 16.50,176.50 C17.92,193.00 19.40,208.47 19.79,210.89 L 20.50 215.27 L 43.00 221.53 C95.55,236.14 102.44,238.10 102.87,238.54 C103.13,238.79 80.08,239.00 51.67,239.00 L 0.00 239.00 L 0.07 121.25 ZM 109.19 238.48 C109.61,238.06 158.83,224.19 186.00,216.83 L 191.50 215.34 L 195.66 168.92 C197.95,143.39 200.78,111.70 201.95,98.50 C208.66,22.66 210.09,6.85 210.43,4.50 C210.60,3.40 210.79,55.71 210.86,120.75 L 211.00 239.00 L 159.83 239.00 C131.69,239.00 108.90,238.76 109.19,238.48 ZM 85.50 187.92 C76.15,185.21 64.84,182.05 60.37,180.90 L 52.23 178.81 L 51.67 174.16 C51.36,171.60 50.54,162.60 49.87,154.17 C48.89,142.13 48.89,138.69 49.85,138.09 C51.20,137.26 72.90,137.56 73.77,138.43 C74.60,139.27 75.87,147.92 75.94,153.22 L 76.00 157.94 L 81.25 159.43 C84.14,160.24 90.73,162.08 95.91,163.52 L 105.31 166.12 L 119.10 162.40 C126.68,160.36 133.37,158.39 133.96,158.03 C135.09,157.33 138.31,126.31 137.41,124.85 C137.12,124.38 116.70,124.00 92.04,124.00 L 47.20 124.00 L 46.63 118.25 C46.32,115.09 45.58,107.10 44.99,100.50 C44.39,93.90 43.04,78.87 41.98,67.11 C40.92,55.35 40.29,45.33 40.59,44.86 C40.88,44.39 70.62,44.00 106.68,44.00 L 172.25 44.00 L 171.65 47.01 C171.32,48.67 170.78,53.73 170.46,58.26 C170.14,62.79 169.67,67.51 169.42,68.75 L 168.96 71.00 L 118.90 71.00 L 68.84 71.00 L 69.55 81.02 C69.94,86.53 70.56,92.49 70.92,94.27 L 71.58 97.50 L 119.35 97.76 L 167.12 98.02 L 166.57 102.26 C166.27,104.59 165.09,117.30 163.94,130.50 C162.80,143.70 161.33,159.86 160.68,166.40 L 159.50 178.30 L 155.50 179.70 C153.30,180.46 148.35,181.94 144.50,182.98 C140.65,184.02 130.82,186.70 122.66,188.94 C114.49,191.17 106.62,192.96 105.16,192.92 C103.70,192.88 94.85,190.63 85.50,187.92 Z" fill="rgb(249,247,246)"/>
</g>
</svg>